<?xml version="1.0" encoding="iso-8859-1"?>
<!-- Uploaded to: SVG Repo, www.svgrepo.com, Generator: SVG Repo Mixer Tools -->
<svg fill="#000000" height="800px" width="800px" version="1.1" id="Capa_1" xmlns="http://www.w3.org/2000/svg" xmlns:xlink="http://www.w3.org/1999/xlink" 
	 viewBox="0 0 490 490" xml:space="preserve">
<g>
	<path d="M123.936,330.963c0-3.065-0.12-6.729-0.329-10.991l-0.284-5.518l-0.269-5.473h0.434l1.72,5.189l1.705,5.249
		c1.51,4.636,2.722,8.12,3.649,10.438l16.733,42.184h13.025l16.569-42.513c0.852-2.243,2.049-5.727,3.589-10.438l1.66-5.249
		l1.705-5.249h0.449l-0.284,5.578l-0.269,5.637c-0.179,4.157-0.284,7.881-0.284,11.155v41.078h14.311v-75.366h-23.806
		l-13.249,35.006c-0.987,2.542-2.168,5.996-3.529,10.378l-1.66,5.189l-1.6,5.189h-0.493l-1.72-5.189l-1.66-5.249
		c-1.51-4.531-2.722-8-3.634-10.438l-13.473-34.887h-23.313v75.366h14.311V330.963z"/>
	<polygon points="225.306,339.412 232.155,339.412 259.759,372.041 278.092,372.041 244.477,333.281 274.892,296.675 
		257.112,296.675 232.05,327.375 225.306,327.375 225.306,296.675 211.01,296.675 211.01,372.041 225.306,372.041 	"/>
	<path d="M322.998,372.041l24.285-75.366H332.15l-13.967,42.737c-1.241,3.828-2.752,8.942-4.531,15.342l-1.436,5.144h-0.374
		c-2.617-9.615-4.591-16.464-5.922-20.546l-14.131-42.678h-14.849l24.075,75.366H322.998z"/>
	<path d="M77.788,0v265.111H42.189v139.615h0.001l35.59,35.591L77.788,490h370.023V102.422L345.388,0H77.788z M395.793,389.413
		H57.501v-108.99h338.292V389.413z M353.022,36.962l57.816,57.804h-57.816V36.962z"/>
</g>
</svg>